<svg width="24" height="24" viewBox="0 0 24 24" fill="none" xmlns="http://www.w3.org/2000/svg">
<g clip-path="url(#clip0_881_5486)">
<path fill-rule="evenodd" clip-rule="evenodd" d="M13.333 3.09682C13.333 2.50508 12.8533 2.02539 12.2616 2.02539C11.6699 2.02539 11.1902 2.50508 11.1902 3.09682V4.17323C11.1902 4.76496 11.6699 5.24466 12.2616 5.24466C12.8533 5.24466 13.333 4.76496 13.333 4.17323V3.09682ZM11.421 6.18371C11.9335 5.88784 12.5888 6.06343 12.8846 6.57588L18.3955 16.121C18.6914 16.6335 18.5158 17.2888 18.0034 17.5846C17.4909 17.8805 16.8357 17.7049 16.5398 17.1925L16.4607 17.0553L12.0441 18.0809C12.1856 18.6011 12.1903 19.1538 12.0508 19.6842C11.8416 20.4798 11.3248 21.1596 10.6143 21.5742C9.90371 21.9888 9.05758 22.1041 8.26201 21.8948C7.46642 21.6855 6.78657 21.1688 6.37199 20.4582L6.36952 20.4541L5.83218 19.5233L3.75572 20.0055C3.44949 20.0765 3.13277 19.9391 2.97558 19.6668L2.10547 18.1598C1.94828 17.8875 1.98759 17.5445 2.20228 17.3148L11.1096 7.7871L11.0289 7.64731C10.733 7.13486 10.9086 6.47958 11.421 6.18371ZM8.01404 19.0166L9.95202 18.5666C10.0185 18.7491 10.0285 18.9488 9.97847 19.1391C9.91378 19.3851 9.75402 19.5952 9.53435 19.7233C9.31468 19.8515 9.05311 19.8872 8.80715 19.8225C8.56184 19.7579 8.35212 19.5989 8.22387 19.3801L8.01404 19.0166ZM21.9847 11.7483C21.9847 12.3401 21.5049 12.8198 20.9132 12.8198H19.8368C19.2451 12.8198 18.7654 12.3401 18.7654 11.7483C18.7654 11.1566 19.2451 10.6769 19.8368 10.6769H20.9132C21.5049 10.6769 21.9847 11.1566 21.9847 11.7483ZM4.68764 12.8198C5.27938 12.8198 5.75907 12.3401 5.75907 11.7483C5.75907 11.1566 5.27938 10.6769 4.68764 10.6769H3.61124C3.0195 10.6769 2.5398 11.1566 2.5398 11.7483C2.5398 12.3401 3.0195 12.8198 3.61124 12.8198H4.68764ZM7.80604 7.29366C7.38761 7.71206 6.70922 7.71204 6.29081 7.2936L5.38561 6.38834C4.96719 5.96991 4.96722 5.29151 5.38565 4.87311C5.80408 4.45471 6.48248 4.45473 6.90088 4.87316L7.80609 5.77843C8.22449 6.19686 8.22448 6.87524 7.80604 7.29366ZM19.1371 6.38834C19.5554 5.96993 19.5554 5.29153 19.1371 4.87311C18.7187 4.4547 18.0402 4.4547 17.6218 4.87311L16.7059 5.7889C16.2875 6.20731 16.2875 6.8857 16.7059 7.30413C17.1244 7.72254 17.8028 7.72254 18.2212 7.30413L19.1371 6.38834Z" fill="#C1BDB8"/>
</g>
<defs>
<clipPath id="clip0_881_5486">
<rect width="20" height="20" fill="white" transform="translate(2 2)"/>
</clipPath>
</defs>
</svg>
