<svg width="33" height="32" viewBox="0 0 33 32" fill="none" xmlns="http://www.w3.org/2000/svg">
<g clip-path="url(#clip0_1483_3127)">
<path fill-rule="evenodd" clip-rule="evenodd" d="M8.44226 8.66667C5.52881 8.66667 3.16699 11.0285 3.16699 13.9419V20.6667C3.16699 24.3486 6.15176 27.3333 9.83366 27.3333H23.167C26.8489 27.3333 29.8337 24.3486 29.8337 20.6667V13.9419C29.8337 11.0285 27.4718 8.66667 24.5584 8.66667C23.7143 8.66667 22.9514 8.16362 22.6189 7.38777L22.206 6.42432C21.5757 4.95359 20.1295 4 18.5294 4H16.5003H14.4712C12.8711 4 11.425 4.95359 10.7947 6.42432L10.3818 7.38777C10.0492 8.16362 9.28636 8.66667 8.44226 8.66667ZM19.75 16.6666C19.75 14.8717 18.2949 13.4166 16.5 13.4166C14.7051 13.4166 13.25 14.8717 13.25 16.6666C13.25 18.4616 14.7051 19.9166 16.5 19.9166C18.2949 19.9166 19.75 18.4616 19.75 16.6666ZM16.5 11.9166C19.1234 11.9166 21.25 14.0433 21.25 16.6666C21.25 19.29 19.1234 21.4166 16.5 21.4166C13.8766 21.4166 11.75 19.29 11.75 16.6666C11.75 14.0433 13.8766 11.9166 16.5 11.9166Z" fill="#C1BDB8"/>
</g>
<defs>
<clipPath id="clip0_1483_3127">
<rect width="32" height="32" fill="white" transform="translate(0.5)"/>
</clipPath>
</defs>
</svg>
