<svg width="24" height="24" viewBox="0 0 24 24" fill="none" xmlns="http://www.w3.org/2000/svg">
<g clip-path="url(#clip0_827_4428)">
<path fill-rule="evenodd" clip-rule="evenodd" d="M8.7356 7.30645L9.67508 3.81695C9.84301 3.19321 10.4086 2.75977 11.0545 2.75977H12.9446C13.5905 2.75977 14.1561 3.19321 14.324 3.81695L15.2635 7.30645H8.7356ZM8.25483 9.09217L6.90497 14.1059H17.0942L15.7443 9.09217H8.25483ZM5.48855 19.3668L6.4242 15.8917H17.5749L18.5106 19.3668H20.8389C21.4306 19.3668 21.9103 19.8466 21.9103 20.4383C21.9103 21.0301 21.4306 21.5097 20.8389 21.5097H3.1603C2.56856 21.5097 2.08887 21.0301 2.08887 20.4383C2.08887 19.8466 2.56856 19.3668 3.1603 19.3668H5.48855Z" fill="#B8B9C1"/>
</g>
<defs>
<clipPath id="clip0_827_4428">
<rect width="20" height="20" fill="white" transform="translate(2 2)"/>
</clipPath>
</defs>
</svg>
