<svg width="24" height="24" viewBox="0 0 24 24" fill="none" xmlns="http://www.w3.org/2000/svg">
<g clip-path="url(#clip0_881_5496)">
<path fill-rule="evenodd" clip-rule="evenodd" d="M9.84973 2.1797C10.0466 2.0621 10.2716 2 10.501 2C10.7153 2 10.9259 2.05424 11.1133 2.15735C16.8085 4.80334 20.0333 10.2977 19.8342 14.8913C19.7493 16.822 19.058 18.6083 17.7189 19.9133C16.3797 21.2183 14.4558 21.9813 12.0198 21.986C11.0413 22.0463 10.0605 21.9119 9.13426 21.5903C8.20063 21.2663 7.34123 20.7589 6.60666 20.0977C5.87209 19.4366 5.27716 18.6351 4.85691 17.7407C4.43666 16.8463 4.19956 15.8768 4.15957 14.8893L4.15914 14.8786C4.12997 13.736 4.41444 12.6072 4.98153 11.6148C5.5486 10.6224 6.45451 9.40323 7.45373 8.84827C7.62931 8.75076 7.83783 8.73166 8.0282 8.79567C8.21857 8.85968 8.37319 9.00089 8.45419 9.18467C8.56247 10.125 8.87497 10.75 9.81247 11.375C10.5187 10.4536 10.8453 9.5967 10.8357 8.28873C10.8242 6.73068 10.3348 5.06177 9.51556 3.6407C9.38144 3.41685 9.33246 3.152 9.37786 2.89475C9.42399 2.63333 9.56439 2.39791 9.77244 2.23306C9.79701 2.21359 9.82283 2.19577 9.84973 2.1797Z" fill="#C1BDB8"/>
<path fill-rule="evenodd" clip-rule="evenodd" d="M11.1987 11.4592C11.3007 11.4041 11.4172 11.375 11.536 11.375C11.647 11.375 11.7561 11.4004 11.8532 11.4488C14.8032 12.6891 16.4736 15.2645 16.3705 17.4178C16.3265 18.3228 15.9685 19.1601 15.2748 19.7718C14.5811 20.3836 13.5845 20.7412 12.3228 20.7434C11.8159 20.7717 11.3079 20.7087 10.8281 20.5579C10.3445 20.4061 9.89933 20.1682 9.51883 19.8583C9.13833 19.5484 8.83017 19.1727 8.61249 18.7534C8.3948 18.3342 8.27199 17.8797 8.25128 17.4169L8.25106 17.4119C8.23595 16.8762 8.3833 16.3471 8.67704 15.882C8.97077 15.4168 9.44002 14.8453 9.9576 14.5851C10.0486 14.5394 10.1566 14.5305 10.2552 14.5605C10.3538 14.5905 10.4339 14.6567 10.4758 14.7428C10.5319 15.1836 10.6938 15.4766 11.1794 15.7695C11.5452 15.3376 11.7144 14.9359 11.7094 14.3228C11.7035 13.5925 11.45 12.8102 11.0256 12.1441C10.9561 12.0391 10.9308 11.915 10.9543 11.7944C10.9782 11.6719 11.0509 11.5615 11.1587 11.4842C11.1714 11.4751 11.1848 11.4668 11.1987 11.4592Z" fill="#C1BDB8"/>
</g>
<defs>
<clipPath id="clip0_881_5496">
<rect width="20" height="20" fill="white" transform="translate(2 2)"/>
</clipPath>
</defs>
</svg>
