<svg width="24" height="24" viewBox="0 0 24 24" fill="none" xmlns="http://www.w3.org/2000/svg">
<path d="M4.60688 13.0756L11.4156 19.6246C11.6502 19.8501 11.7674 19.9629 11.9057 19.9907C11.968 20.0032 12.032 20.0032 12.0943 19.9907C12.2326 19.9629 12.3498 19.8501 12.5844 19.6246L19.3931 13.0756C21.3088 11.2329 21.5415 8.20074 19.9303 6.07444L19.6273 5.67464C17.6999 3.13098 13.8309 3.55757 12.4766 6.46308C12.2853 6.8735 11.7147 6.8735 11.5234 6.46308C10.1691 3.55757 6.30015 3.13098 4.3727 5.67464L4.06974 6.07445C2.45854 8.20074 2.69118 11.2329 4.60688 13.0756Z" fill="#F07560" stroke="#F07560" stroke-width="1.5"/>
</svg>
