<svg width="120" height="16" viewBox="0 0 120 16" fill="none" xmlns="http://www.w3.org/2000/svg">
<path d="M116.753 8.10085V10.3194C116.753 10.9917 117.042 11.3278 117.62 11.3278H119.456C119.603 11.3278 119.731 11.3816 119.839 11.4891C119.946 11.5967 120 11.7244 120 11.8723V14.5144C120 14.6623 119.946 14.79 119.839 14.8976C119.731 15.0052 119.603 15.059 119.456 15.059H117.177C113.815 15.059 112.134 13.6136 112.134 10.7227V8.10085H110.541C110.393 8.10085 110.265 8.04707 110.158 7.9395C110.05 7.83194 109.997 7.70421 109.997 7.5563V5.11593C109.997 4.96802 110.05 4.84029 110.158 4.73273C110.265 4.62516 110.393 4.57138 110.541 4.57138H112.134V1.28393C112.134 1.13603 112.188 1.00829 112.296 0.900728C112.403 0.793162 112.531 0.73938 112.679 0.73938H116.208C116.356 0.73938 116.484 0.793162 116.592 0.900728C116.699 1.00829 116.753 1.13603 116.753 1.28393V4.57138H119.294C119.442 4.57138 119.57 4.62516 119.677 4.73273C119.785 4.84029 119.839 4.96802 119.839 5.11593V7.5563C119.839 7.70421 119.785 7.83194 119.677 7.9395C119.57 8.04707 119.442 8.10085 119.294 8.10085H116.753Z" fill="#C1BDB8"/>
<path d="M108.45 11.0052H102.44V11.106C102.44 11.9262 102.702 12.3363 103.227 12.3363C103.375 12.3363 103.556 12.2287 103.771 12.0136C103.987 11.7984 104.222 11.6909 104.477 11.6909H108.289C108.585 11.6909 108.733 11.8388 108.733 12.1346C108.733 12.7934 108.235 13.4792 107.24 14.1918C106.259 14.9044 104.921 15.2607 103.227 15.2607C101.546 15.2607 100.168 14.8237 99.0923 13.9497C98.0301 13.0623 97.499 11.8455 97.499 10.2993V9.33118C97.499 7.86561 98.0436 6.67567 99.1327 5.76137C100.222 4.83362 101.647 4.36975 103.408 4.36975C105.183 4.36975 106.555 4.88741 107.523 5.92272C108.504 6.95803 108.995 8.26898 108.995 9.85556V10.4606C108.995 10.6085 108.941 10.7362 108.834 10.8438C108.726 10.9514 108.598 11.0052 108.45 11.0052ZM104.054 8.40343C104.054 7.5967 103.785 7.19333 103.247 7.19333C102.709 7.19333 102.44 7.5967 102.44 8.40343V8.48411H104.054V8.40343Z" fill="#C1BDB8"/>
<path d="M95.5501 11.0052H89.5399V11.106C89.5399 11.9262 89.8021 12.3363 90.3265 12.3363C90.4744 12.3363 90.6559 12.2287 90.871 12.0136C91.0861 11.7984 91.3214 11.6909 91.5769 11.6909H95.3887C95.6845 11.6909 95.8324 11.8388 95.8324 12.1346C95.8324 12.7934 95.335 13.4792 94.34 14.1918C93.3584 14.9044 92.0206 15.2607 90.3265 15.2607C88.6458 15.2607 87.2676 14.8237 86.1919 13.9497C85.1297 13.0623 84.5986 11.8455 84.5986 10.2993V9.33118C84.5986 7.86561 85.1432 6.67567 86.2323 5.76137C87.3214 4.83362 88.7466 4.36975 90.508 4.36975C92.2828 4.36975 93.6543 4.88741 94.6223 5.92272C95.6039 6.95803 96.0946 8.26898 96.0946 9.85556V10.4606C96.0946 10.6085 96.0409 10.7362 95.9333 10.8438C95.8257 10.9514 95.698 11.0052 95.5501 11.0052ZM91.1534 8.40343C91.1534 7.5967 90.8845 7.19333 90.3466 7.19333C89.8088 7.19333 89.5399 7.5967 89.5399 8.40343V8.48411H91.1534V8.40343Z" fill="#C1BDB8"/>
<path d="M77.5346 7.9799C77.3194 7.9799 77.1312 8.06057 76.9698 8.22192C76.8219 8.38327 76.748 8.62529 76.748 8.94798V14.5145C76.748 14.6624 76.6942 14.7901 76.5866 14.8977C76.4791 15.0052 76.3513 15.059 76.2034 15.059H72.6538C72.5059 15.059 72.3782 15.0052 72.2706 14.8977C72.163 14.7901 72.1093 14.6624 72.1093 14.5145V9.08916C72.1093 8.34965 71.8403 7.9799 71.3025 7.9799C71.0739 7.9799 70.879 8.06729 70.7176 8.24209C70.5697 8.40343 70.4958 8.63201 70.4958 8.92781V14.5145C70.4958 14.6624 70.442 14.7901 70.3344 14.8977C70.2269 15.0052 70.0991 15.059 69.9512 15.059H66.3209C66.173 15.059 66.0453 15.0052 65.9377 14.8977C65.8302 14.7901 65.7764 14.6624 65.7764 14.5145V5.11598C65.7764 4.96808 65.8302 4.84035 65.9377 4.73278C66.0453 4.62522 66.173 4.57143 66.3209 4.57143H69.6487C69.7966 4.57143 69.9243 4.62522 70.0319 4.73278C70.1395 4.84035 70.1933 4.96808 70.1933 5.11598V5.78154C70.4622 5.43195 70.8454 5.11598 71.3428 4.83362C71.8941 4.52438 72.5126 4.36975 73.1983 4.36975C74.6774 4.36975 75.6723 4.92102 76.1833 6.02356C76.506 5.55296 76.9497 5.16304 77.5144 4.85379C78.0791 4.5311 78.664 4.36975 79.269 4.36975C80.3581 4.36975 81.2455 4.75295 81.9313 5.51935C82.6304 6.28575 82.98 7.42863 82.98 8.94798V14.5145C82.98 14.6624 82.9262 14.7901 82.8187 14.8977C82.7111 15.0052 82.5834 15.059 82.4355 15.059H78.8858C78.7379 15.059 78.6102 15.0052 78.5026 14.8977C78.3951 14.7901 78.3413 14.6624 78.3413 14.5145V9.08916C78.3413 8.34965 78.0724 7.9799 77.5346 7.9799Z" fill="#C1BDB8"/>
<path d="M63.5247 11.0052H57.5145V11.106C57.5145 11.9262 57.7767 12.3363 58.3011 12.3363C58.449 12.3363 58.6305 12.2287 58.8456 12.0136C59.0608 11.7984 59.296 11.6909 59.5515 11.6909H63.3633C63.6591 11.6909 63.8071 11.8388 63.8071 12.1346C63.8071 12.7934 63.3096 13.4792 62.3146 14.1918C61.3331 14.9044 59.9952 15.2607 58.3011 15.2607C56.6204 15.2607 55.2422 14.8237 54.1665 13.9497C53.1043 13.0623 52.5732 11.8455 52.5732 10.2993V9.33118C52.5732 7.86561 53.1178 6.67567 54.2069 5.76137C55.296 4.83362 56.7212 4.36975 58.4826 4.36975C60.2574 4.36975 61.6289 4.88741 62.5969 5.92272C63.5785 6.95803 64.0692 8.26898 64.0692 9.85556V10.4606C64.0692 10.6085 64.0155 10.7362 63.9079 10.8438C63.8003 10.9514 63.6726 11.0052 63.5247 11.0052ZM59.128 8.40343C59.128 7.5967 58.8591 7.19333 58.3212 7.19333C57.7834 7.19333 57.5145 7.5967 57.5145 8.40343V8.48411H59.128V8.40343Z" fill="#C1BDB8"/>
<path d="M43.874 9.0891V14.5144C43.874 14.6623 43.8202 14.79 43.7126 14.8976C43.6051 15.0052 43.4773 15.059 43.3294 15.059H39.3966C39.2487 15.059 39.121 15.0052 39.0134 14.8976C38.9058 14.79 38.8521 14.6623 38.8521 14.5144V1.28393C38.8521 1.13603 38.9058 1.00829 39.0134 0.900728C39.121 0.793162 39.2487 0.73938 39.3966 0.73938H43.3294C43.4773 0.73938 43.6051 0.793162 43.7126 0.900728C43.8202 1.00829 43.874 1.13603 43.874 1.28393V5.62014C44.6404 4.78651 45.6219 4.36969 46.8186 4.36969C48.0152 4.36969 49.0035 4.75962 49.7833 5.53946C50.5632 6.31931 50.9531 7.45546 50.9531 8.94792V14.4942C50.9531 14.6421 50.8993 14.7699 50.7918 14.8774C50.6842 14.985 50.5565 15.0388 50.4086 15.0388H46.4555C46.3076 15.0388 46.1799 14.985 46.0723 14.8774C45.9648 14.7699 45.911 14.6421 45.911 14.4942V9.0891C45.911 8.34959 45.5681 7.97984 44.8824 7.97984C44.2101 7.97984 43.874 8.34959 43.874 9.0891Z" fill="#C1BDB8"/>
<path d="M34.1885 8.10085V10.3194C34.1885 10.9917 34.4776 11.3278 35.0558 11.3278H36.8911C37.039 11.3278 37.1667 11.3816 37.2743 11.4891C37.3819 11.5967 37.4357 11.7244 37.4357 11.8723V14.5144C37.4357 14.6623 37.3819 14.79 37.2743 14.8976C37.1667 15.0052 37.039 15.059 36.8911 15.059H34.6121C31.2507 15.059 29.57 13.6136 29.57 10.7227V8.10085H27.9767C27.8288 8.10085 27.701 8.04707 27.5935 7.9395C27.4859 7.83194 27.4321 7.70421 27.4321 7.5563V5.11593C27.4321 4.96802 27.4859 4.84029 27.5935 4.73273C27.701 4.62516 27.8288 4.57138 27.9767 4.57138H29.57V1.28393C29.57 1.13603 29.6238 1.00829 29.7313 0.900728C29.8389 0.793162 29.9666 0.73938 30.1145 0.73938H33.644C33.7919 0.73938 33.9196 0.793162 34.0272 0.900728C34.1348 1.00829 34.1885 1.13603 34.1885 1.28393V4.57138H36.7298C36.8777 4.57138 37.0054 4.62516 37.113 4.73273C37.2205 4.84029 37.2743 4.96802 37.2743 5.11593V7.5563C37.2743 7.70421 37.2205 7.83194 37.113 7.9395C37.0054 8.04707 36.8777 8.10085 36.7298 8.10085H34.1885Z" fill="#C1BDB8"/>
<path d="M14.7183 10.5009V9.1295C14.7183 7.5967 15.2628 6.42021 16.3519 5.60002C17.441 4.77984 18.8461 4.36975 20.5671 4.36975C22.2881 4.36975 23.6932 4.77984 24.7823 5.60002C25.8714 6.42021 26.4159 7.5967 26.4159 9.1295V10.5009C26.4159 12.0472 25.8916 13.2304 24.8428 14.0506C23.794 14.8573 22.3688 15.2607 20.5671 15.2607C18.7654 15.2607 17.3402 14.8573 16.2914 14.0506C15.2426 13.2304 14.7183 12.0472 14.7183 10.5009ZM21.4747 10.6623V8.96815C21.4747 8.45722 21.4075 8.10091 21.273 7.89922C21.1385 7.69754 20.9032 7.5967 20.5671 7.5967C20.231 7.5967 19.9957 7.69754 19.8612 7.89922C19.7268 8.10091 19.6595 8.45722 19.6595 8.96815V10.6623C19.6595 11.2001 19.7268 11.5632 19.8612 11.7514C19.9957 11.9396 20.231 12.0337 20.5671 12.0337C20.9032 12.0337 21.1385 11.9329 21.273 11.7312C21.4075 11.5295 21.4747 11.1732 21.4747 10.6623Z" fill="#C1BDB8"/>
<path d="M0.544547 0.940308H6.35305C8.31611 0.940308 9.92958 1.43107 11.1935 2.4126C12.4708 3.38069 13.1095 4.73869 13.1095 6.48662V9.49171C13.1095 11.3203 12.491 12.7052 11.254 13.6464C10.017 14.5876 8.39006 15.0582 6.37322 15.0582H0.544547C0.396645 15.0582 0.268912 15.0044 0.161347 14.8969C0.0537823 14.7893 0 14.6616 0 14.5136V1.48486C0 1.33695 0.0537823 1.20922 0.161347 1.10166C0.268912 0.99409 0.396645 0.940308 0.544547 0.940308ZM5.0421 4.87315V11.1254H6.35305C6.8102 11.1254 7.17323 10.9909 7.44214 10.722C7.7245 10.4396 7.86568 10.0295 7.86568 9.49171V6.48662C7.86568 5.41097 7.36147 4.87315 6.35305 4.87315H5.0421Z" fill="#C1BDB8"/>
</svg>
