<svg width="36" height="36" viewBox="0 0 36 36" fill="none" xmlns="http://www.w3.org/2000/svg">
<rect width="36" height="36" rx="18" fill="#5CC3E6"/>
<g clip-path="url(#clip0_262_12536)">
<path fill-rule="evenodd" clip-rule="evenodd" d="M17.2857 11.8889C16.1556 11.2558 14.0414 10.4815 11.7102 10.2049C10.77 10.0934 10 10.8681 10 11.8149V20.9578C10 21.9046 10.7737 22.659 11.7053 22.8281C13.8086 23.2101 15.5581 24.2186 16.6744 25.016C16.8614 25.1496 17.0684 25.2508 17.2857 25.3196V11.8889ZM18.7143 25.3198C18.9313 25.2511 19.138 25.1501 19.3248 25.0167C20.4411 24.2192 22.1909 23.2103 24.2947 22.8284C25.2263 22.6592 26 21.9047 26 20.9579V11.8151C26 10.8683 25.2299 10.0935 24.2898 10.2051C21.9585 10.4817 19.8444 11.2559 18.7143 11.8889V25.3198Z" fill="#F5FCFF"/>
</g>
<defs>
<clipPath id="clip0_262_12536">
<rect width="16" height="16" fill="white" transform="translate(10 10)"/>
</clipPath>
</defs>
</svg>
