<svg width="36" height="36" viewBox="0 0 36 36" fill="none" xmlns="http://www.w3.org/2000/svg">
<rect width="36" height="36" rx="18" fill="#ED9141"/>
<g clip-path="url(#clip0_459_3325)">
<path fill-rule="evenodd" clip-rule="evenodd" d="M18.0223 10.2852C17.8384 10.2852 17.6566 10.324 17.4887 10.3992C17.3269 10.4718 17.1815 10.5765 17.0616 10.707L15.7664 11.9951C15.6291 11.7135 15.4438 11.4549 15.2161 11.2319C14.6881 10.7052 13.9727 10.4093 13.2269 10.4093C12.4799 10.4093 11.7634 10.7061 11.2352 11.2343C10.707 11.7625 10.4103 12.4789 10.4103 13.2259C10.4103 13.9718 10.7062 14.6871 11.2329 15.2151C11.4531 15.44 11.7081 15.6236 11.9857 15.7603L10.7106 17.0143C10.5789 17.1348 10.4732 17.281 10.4002 17.444C10.325 17.6118 10.2861 17.7936 10.2861 17.9775C10.2861 18.1615 10.325 18.3433 10.4002 18.5111C10.4729 18.6733 10.5778 18.8188 10.7086 18.9389L12.3848 20.6151C12.5156 20.7459 12.7015 20.8053 12.8839 20.7745C13.0662 20.7438 13.2224 20.6268 13.3031 20.4604C13.3876 20.2862 13.4993 20.1266 13.6342 19.9877C13.9497 19.6711 14.3779 19.4923 14.825 19.4908C15.273 19.4893 15.7033 19.6658 16.0212 19.9815C16.339 20.2972 16.5185 20.7262 16.52 21.1742C16.5215 21.6206 16.3463 22.0495 16.0326 22.367C15.8941 22.5013 15.735 22.6126 15.5614 22.6968C15.3968 22.7766 15.2804 22.9303 15.2482 23.1104C15.216 23.2904 15.272 23.475 15.3987 23.6069L17.0128 25.2864C17.1337 25.4194 17.2808 25.5261 17.4449 25.5997C17.6128 25.6749 17.7946 25.7137 17.9785 25.7137C18.1624 25.7137 18.3443 25.6749 18.5121 25.5997C18.674 25.5271 18.8193 25.4224 18.9393 25.2919L20.2377 24.0006C20.312 24.1534 20.4002 24.2997 20.5018 24.4377C20.8233 24.8746 21.2641 25.2095 21.7714 25.4018C22.2786 25.5942 22.8305 25.6359 23.3609 25.5221C23.8913 25.4082 24.3774 25.1437 24.761 24.76C25.1446 24.3765 25.4092 23.8903 25.523 23.3599C25.6369 22.8295 25.5952 22.2776 25.4028 21.7704C25.2105 21.2632 24.8756 20.8223 24.4387 20.5008C24.3038 20.4016 24.1609 20.315 24.012 20.2418L25.2902 18.9845C25.4219 18.8641 25.5276 18.7179 25.6006 18.5549C25.6758 18.3871 25.7147 18.2052 25.7147 18.0213C25.7147 17.8374 25.6758 17.6556 25.6006 17.4878C25.5277 17.325 25.4221 17.1789 25.2906 17.0586L23.5915 15.3812C23.4603 15.2517 23.2748 15.1935 23.0932 15.2247C22.9116 15.2559 22.7563 15.3727 22.6758 15.5385C22.5936 15.7083 22.4852 15.8643 22.3548 16.0007C22.0363 16.2844 21.6217 16.4369 21.1948 16.4267C20.7621 16.4165 20.35 16.24 20.044 15.934C19.738 15.628 19.5615 15.2159 19.5512 14.7832C19.5411 14.3563 19.6935 13.9417 19.9773 13.6231C20.1137 13.4928 20.2696 13.3844 20.4395 13.3021C20.604 13.2223 20.7205 13.0685 20.7526 12.8885C20.7848 12.7084 20.7289 12.5239 20.6021 12.392L18.9881 10.7125C18.8672 10.5794 18.72 10.4728 18.5559 10.3992C18.3881 10.324 18.2062 10.2852 18.0223 10.2852Z" fill="#FFFDFA"/>
</g>
<defs>
<clipPath id="clip0_459_3325">
<rect width="16" height="16" fill="white" transform="translate(10 10)"/>
</clipPath>
</defs>
</svg>
