<svg width="24" height="24" viewBox="0 0 24 24" fill="none" xmlns="http://www.w3.org/2000/svg">
<g clip-path="url(#clip0_827_4447)">
<path fill-rule="evenodd" clip-rule="evenodd" d="M12.0277 2.35742C11.7978 2.35742 11.5705 2.40601 11.3607 2.50001C11.1583 2.59067 10.9766 2.72161 10.8267 2.88474L9.20775 4.49484C9.03618 4.14282 8.80451 3.81956 8.51985 3.54085C7.85988 2.88245 6.96566 2.51263 6.03332 2.51263C5.09958 2.51263 4.20406 2.88356 3.54381 3.54381C2.88356 4.20406 2.51263 5.09958 2.51263 6.03332C2.51263 6.96566 2.88245 7.85988 3.54085 8.51985C3.81614 8.80101 4.13486 9.03047 4.48185 9.20139L2.88806 10.7689C2.72339 10.9194 2.59129 11.1022 2.50001 11.3059C2.40601 11.5157 2.35742 11.743 2.35742 11.9729C2.35742 12.2028 2.40601 12.4301 2.50001 12.6399C2.59082 12.8426 2.72205 13.0245 2.88556 13.1746L4.98081 15.2699C5.14425 15.4333 5.37666 15.5076 5.60458 15.4692C5.83251 15.4307 6.02775 15.2844 6.12859 15.0765C6.23419 14.8587 6.37394 14.6592 6.54254 14.4856C6.93694 14.0898 7.47218 13.8664 8.03104 13.8645C8.59104 13.8626 9.12886 14.0832 9.52619 14.4778C9.92352 14.8724 10.1478 15.4088 10.1498 15.9687C10.1517 16.5267 9.93259 17.0629 9.54057 17.4597C9.36736 17.6276 9.16851 17.7667 8.95148 17.872C8.74576 17.9717 8.60022 18.1639 8.55999 18.389C8.51977 18.614 8.58971 18.8447 8.74814 19.0096L10.7657 21.109C10.9169 21.2753 11.1008 21.4086 11.3059 21.5006C11.5157 21.5946 11.743 21.6431 11.9729 21.6431C12.2028 21.6431 12.4301 21.5946 12.6399 21.5006C12.8422 21.4099 13.0239 21.279 13.1739 21.1159L14.7968 19.5017C14.8897 19.6927 15.0001 19.8756 15.127 20.0481C15.5289 20.5943 16.0799 21.0129 16.714 21.2533C17.348 21.4937 18.0379 21.5459 18.7009 21.4036C19.3639 21.2613 19.9716 20.9306 20.451 20.451C20.9306 19.9716 21.2613 19.3639 21.4036 18.7009C21.5459 18.0379 21.4937 17.348 21.2533 16.714C21.0129 16.0799 20.5943 15.5289 20.0481 15.127C19.8796 15.0029 19.7009 14.8947 19.5147 14.8032L21.1126 13.2317C21.2771 13.0811 21.4093 12.8984 21.5006 12.6946C21.5946 12.4848 21.6431 12.2575 21.6431 12.0277C21.6431 11.7978 21.5946 11.5705 21.5006 11.3607C21.4094 11.1572 21.2774 10.9746 21.113 10.8242L18.9891 8.72745C18.8251 8.56564 18.5933 8.49279 18.3663 8.53179C18.1393 8.57081 17.9451 8.71688 17.8446 8.92411C17.7417 9.13639 17.6063 9.33129 17.4433 9.50179C17.0451 9.85651 16.5269 10.0471 15.9932 10.0344C15.4524 10.0216 14.9373 9.80098 14.5547 9.41845C14.1722 9.03592 13.9516 8.52079 13.9388 7.97995C13.9261 7.44631 14.1167 6.92806 14.4714 6.52988C14.6419 6.36694 14.8368 6.23154 15.0491 6.12859C15.2548 6.02884 15.4003 5.83664 15.4406 5.61158C15.4808 5.38651 15.4109 5.15579 15.2524 4.99095L13.2348 2.89156C13.0837 2.72525 12.8998 2.59193 12.6946 2.50001C12.4848 2.40601 12.2575 2.35742 12.0277 2.35742Z" fill="#B8B9C1"/>
</g>
<defs>
<clipPath id="clip0_827_4447">
<rect width="20" height="20" fill="white" transform="translate(2 2)"/>
</clipPath>
</defs>
</svg>
