<svg width="24" height="24" viewBox="0 0 24 24" fill="none" xmlns="http://www.w3.org/2000/svg">
<g clip-path="url(#clip0_1538_21444)">
<path d="M15.9846 12.4788L14.8615 11.3558C15.032 10.466 14.798 9.70702 14.1596 9.07882C13.5211 8.45062 12.7551 8.2096 11.8615 8.35575L10.7385 7.2327C10.9705 7.125 11.2093 7.04743 11.4548 7C11.7003 6.95257 11.9525 6.92885 12.2115 6.92885C13.3461 6.92885 14.3092 7.32468 15.1009 8.11635C15.8926 8.90802 16.2884 9.87115 16.2884 11.0057C16.2884 11.2647 16.2663 11.517 16.2221 11.7625C16.1778 12.008 16.0987 12.2467 15.9846 12.4788ZM19.1653 15.5904L18.0615 14.5557C18.6948 14.0724 19.2615 13.5349 19.7615 12.9432C20.2615 12.3516 20.6782 11.7057 21.0115 11.0057C20.1782 9.32242 18.974 7.98492 17.399 6.99325C15.824 6.00158 14.0948 5.50575 12.2115 5.50575C11.7282 5.50575 11.2573 5.53908 10.799 5.60575C10.3407 5.67242 9.87817 5.77242 9.4115 5.90575L8.24615 4.7404C8.88203 4.48912 9.53042 4.30386 10.1913 4.18463C10.8522 4.06539 11.5256 4.00577 12.2115 4.00577C14.3602 4.00577 16.3339 4.56411 18.1326 5.68077C19.9313 6.79744 21.3147 8.30833 22.2826 10.2134C22.3493 10.3404 22.3977 10.4682 22.4278 10.5971C22.4579 10.7259 22.473 10.8622 22.473 11.0057C22.473 11.1493 22.4605 11.2856 22.4355 11.4144C22.4105 11.5433 22.3647 11.6711 22.298 11.798C21.9442 12.5506 21.4999 13.2455 20.9653 13.8826C20.4307 14.5198 19.8307 15.0891 19.1653 15.5904ZM12.2115 18.0057C10.1064 18.0057 8.17691 17.4432 6.42308 16.3182C4.66923 15.1932 3.27499 13.7115 2.24037 11.873C2.15704 11.7461 2.09615 11.6083 2.0577 11.4596C2.01923 11.3109 2 11.1596 2 11.0057C2 10.8519 2.01667 10.7032 2.05 10.5596C2.08333 10.416 2.14167 10.2756 2.225 10.1384C2.5968 9.45897 3.01796 8.81185 3.48847 8.1971C3.95899 7.58235 4.50002 7.03139 5.11155 6.54422L2.85385 4.27112C2.71538 4.12241 2.64712 3.94581 2.64905 3.74132C2.65097 3.53684 2.72436 3.36217 2.86922 3.2173C3.01409 3.07243 3.18973 3 3.39615 3C3.60255 3 3.77818 3.07243 3.92305 3.2173L20.5 19.7942C20.6384 19.9326 20.7118 20.1041 20.7201 20.3086C20.7285 20.5131 20.6551 20.6929 20.5 20.848C20.3551 20.9929 20.1794 21.0653 19.973 21.0653C19.7666 21.0653 19.591 20.9929 19.4461 20.848L15.9269 17.3595C15.3372 17.5878 14.7311 17.7525 14.1086 17.8538C13.4862 17.9551 12.8538 18.0057 12.2115 18.0057ZM6.16537 7.59802C5.57947 8.05059 5.05287 8.56246 4.58555 9.13362C4.11823 9.70477 3.72688 10.3288 3.4115 11.0057C4.24483 12.6891 5.449 14.0266 7.024 15.0182C8.599 16.0099 10.3282 16.5057 12.2115 16.5057C12.641 16.5057 13.0638 16.4769 13.4798 16.4192C13.8958 16.3615 14.309 16.2724 14.7192 16.1519L13.4538 14.8557C13.2513 14.9442 13.049 15.0041 12.8471 15.0355C12.6452 15.0669 12.4333 15.0826 12.2115 15.0826C11.0769 15.0826 10.1138 14.6868 9.3221 13.8951C8.53043 13.1035 8.1346 12.1403 8.1346 11.0057C8.1346 10.7839 8.15191 10.5721 8.18652 10.3702C8.22114 10.1682 8.27948 9.96599 8.36153 9.76342L6.16537 7.59802Z" fill="#C1BDB8"/>
</g>
<defs>
<clipPath id="clip0_1538_21444">
<rect width="24" height="24" fill="white"/>
</clipPath>
</defs>
</svg>
