<svg width="24" height="24" viewBox="0 0 24 24" fill="none" xmlns="http://www.w3.org/2000/svg">
<g clip-path="url(#clip0_881_5507)">
<path fill-rule="evenodd" clip-rule="evenodd" d="M7.34398 2.09157C7.88528 1.85254 8.51787 2.09759 8.7569 2.6389C8.99593 3.18021 8.75088 3.81279 8.20957 4.05182C7.70094 4.27642 7.24837 4.64306 6.91555 5.14209C6.58724 5.63439 5.922 5.7673 5.4297 5.43899C4.93741 5.11066 4.80448 4.44542 5.13281 3.95313C5.6984 3.10508 6.47357 2.47592 7.34398 2.09157ZM5.63191 19.8131L4.99397 19.0871C4.33413 18.3364 3.81625 17.4718 3.46561 16.5358L2.35807 13.5793C2.09832 12.8859 2.31758 12.1041 2.90003 11.6469C3.77365 10.9612 5.05951 11.2843 5.50518 12.3016L6.39098 14.3235L6.36824 14.4084C6.86371 14.5412 8.02051 15.0854 8.57815 16.0513C8.82471 16.4784 9.37078 16.6247 9.79783 16.3781C10.2249 16.1316 10.3712 15.5855 10.1246 15.1584C9.23821 13.6231 7.5683 12.8813 6.83067 12.6836L8.76745 5.45543C8.94991 4.77446 9.64987 4.37033 10.3308 4.5528C11.0118 4.73528 11.4159 5.43522 11.2335 6.11619L9.91197 11.0481C9.82074 11.3886 10.0228 11.7385 10.3633 11.8298C10.7038 11.921 11.0537 11.7189 11.145 11.3785L12.962 4.59708C13.1445 3.91612 13.8444 3.512 14.5254 3.69448C15.2063 3.87693 15.6104 4.57688 15.428 5.25782L13.6109 12.0392C13.5197 12.3797 13.7217 12.7296 14.0622 12.8209C14.4027 12.9121 14.7527 12.7101 14.8439 12.3696L15.8181 8.7338C16.0092 8.02052 16.7463 7.60089 17.4573 7.80065C18.156 7.997 18.567 8.71887 18.3791 9.42005L15.5775 19.8758C15.3888 20.5801 14.928 21.1807 14.2965 21.5453C13.7348 21.8397 13.089 21.9324 12.4671 21.808L7.26724 20.768C6.63097 20.6407 6.05543 20.3047 5.63191 19.8131ZM19.3651 4.60638C19.8429 4.2571 20.5131 4.36118 20.8624 4.83883C21.4241 5.60689 21.7809 6.53935 21.8466 7.55658C21.8849 8.14708 21.437 8.65673 20.8466 8.69492C20.256 8.73312 19.7464 8.28537 19.7083 7.69487C19.6696 7.09629 19.4609 6.55249 19.1327 6.10366C18.7834 5.626 18.8876 4.95565 19.3651 4.60638Z" fill="#C1BDB8"/>
</g>
<defs>
<clipPath id="clip0_881_5507">
<rect width="20" height="20" fill="white" transform="translate(2 2)"/>
</clipPath>
</defs>
</svg>
