<svg width="24" height="28" viewBox="0 0 24 28" fill="none" xmlns="http://www.w3.org/2000/svg">
<path d="M8.90664 1.35718L8.9067 1.35715C9.29798 1.12342 9.74524 1 10.201 1C10.6143 1 11.0206 1.10148 11.3845 1.29467C18.5186 4.62198 22.6584 11.5508 22.3999 17.5129L22.3999 17.5135C22.2889 20.0398 21.3794 22.4395 19.5604 24.2121C17.7421 25.9841 15.1785 26.9709 12.0551 26.9831C10.7589 27.059 9.4602 26.8791 8.23311 26.4531L8.90664 1.35718ZM8.90664 1.35718C8.83673 1.39895 8.76968 1.44525 8.7059 1.49576L8.70576 1.49588M8.90664 1.35718L8.70576 1.49588M8.15569 4.47439C9.0601 6.04555 9.59037 7.87774 9.60268 9.55381C9.60928 10.4525 9.46998 11.1146 9.16031 11.7361C9.11708 11.679 9.0796 11.6228 9.04666 11.5673C8.89216 11.307 8.79367 10.988 8.73831 10.5072L8.72099 10.3568L8.65994 10.2183C8.44937 9.74052 8.04739 9.3734 7.55242 9.20696L7.23369 10.1548L7.55241 9.20696C7.05742 9.04051 6.51528 9.09019 6.05881 9.3437L6.05879 9.34371C4.61009 10.1483 3.41031 11.8151 2.70944 13.0417C1.93832 14.3911 1.55148 15.9261 1.59115 17.4799L1.59134 17.4872L1.59163 17.4946L1.59215 17.5073L1.59216 17.5076C1.64554 18.8258 1.96205 20.1201 2.52308 21.3141C3.08407 22.5081 3.87825 23.578 4.85886 24.4605C5.83949 25.3431 6.98673 26.0205 8.233 26.453L8.15569 4.47439ZM8.15569 4.47439C7.87489 4.00117 7.77273 3.44258 7.8685 2.89992L8.15569 4.47439ZM8.70576 1.49588C8.26431 1.84566 7.96639 2.34518 7.8685 2.8999L8.70576 1.49588Z" fill="#F07560" stroke="#F2EFEB" strokeWidth="2"/>
<path fillRule="evenodd" clipRule="evenodd" d="M11.0382 13.3511C11.1606 13.2849 11.3004 13.25 11.443 13.25C11.5762 13.25 11.7071 13.2805 11.8236 13.3385C15.3636 14.8269 17.3681 17.9174 17.2443 20.5014C17.1916 21.5874 16.7619 22.5921 15.9295 23.3262C15.0971 24.0603 13.9012 24.4895 12.3871 24.4921C11.7789 24.526 11.1692 24.4504 10.5935 24.2695C10.0131 24.0873 9.47895 23.8018 9.02235 23.43C8.56576 23.0581 8.19596 22.6073 7.93474 22.1041C7.67352 21.601 7.52614 21.0557 7.50129 20.5002L7.50102 20.4942C7.48289 19.8515 7.65971 19.2166 8.0122 18.6583C8.36468 18.1001 8.92778 17.4143 9.54888 17.1021C9.65802 17.0473 9.78763 17.0366 9.90596 17.0726C10.0243 17.1086 10.1204 17.188 10.1707 17.2914C10.2381 17.8203 10.4323 18.1719 11.015 18.5234C11.454 18.0052 11.657 17.5231 11.651 16.7874C11.6439 15.911 11.3397 14.9722 10.8305 14.1729C10.7471 14.047 10.7167 13.898 10.7449 13.7533C10.7736 13.6062 10.8608 13.4738 10.9902 13.3811C11.0054 13.3701 11.0215 13.3601 11.0382 13.3511Z" fill="#F07560"/>
</svg>
