<svg width="36" height="36" viewBox="0 0 36 36" fill="none" xmlns="http://www.w3.org/2000/svg">
<rect width="36" height="36" rx="18" fill="#ED9141"/>
<g clip-path="url(#clip0_468_1863)">
<path fill-rule="evenodd" clip-rule="evenodd" d="M18.0223 10.2861C17.8384 10.2861 17.6566 10.325 17.4887 10.4002C17.3269 10.4727 17.1815 10.5775 17.0616 10.708L15.7664 11.9961C15.6291 11.7145 15.4438 11.4558 15.2161 11.2329C14.6881 10.7062 13.9727 10.4103 13.2269 10.4103C12.4799 10.4103 11.7634 10.707 11.2352 11.2352C10.707 11.7634 10.4103 12.4799 10.4103 13.2269C10.4103 13.9727 10.7062 14.6881 11.2329 15.2161C11.4531 15.441 11.7081 15.6246 11.9857 15.7613L10.7106 17.0153C10.5789 17.1357 10.4732 17.282 10.4002 17.4449C10.325 17.6128 10.2861 17.7946 10.2861 17.9785C10.2861 18.1624 10.325 18.3443 10.4002 18.5121C10.4729 18.6743 10.5778 18.8198 10.7086 18.9399L12.3848 20.6161C12.5156 20.7468 12.7015 20.8062 12.8839 20.7755C13.0662 20.7448 13.2224 20.6277 13.3031 20.4614C13.3876 20.2871 13.4993 20.1276 13.6342 19.9887C13.9497 19.672 14.3779 19.4933 14.825 19.4918C15.273 19.4903 15.7033 19.6667 16.0212 19.9825C16.339 20.2981 16.5185 20.7272 16.52 21.1752C16.5215 21.6216 16.3463 22.0505 16.0326 22.368C15.8941 22.5022 15.735 22.6136 15.5614 22.6978C15.3968 22.7776 15.2804 22.9313 15.2482 23.1114C15.216 23.2914 15.272 23.476 15.3987 23.6078L17.0128 25.2874C17.1337 25.4204 17.2808 25.527 17.4449 25.6006C17.6128 25.6758 17.7946 25.7147 17.9785 25.7147C18.1624 25.7147 18.3443 25.6758 18.5121 25.6006C18.674 25.5281 18.8193 25.4234 18.9393 25.2929L20.2377 24.0016C20.312 24.1544 20.4002 24.3006 20.5018 24.4387C20.8233 24.8756 21.2641 25.2105 21.7714 25.4028C22.2786 25.5952 22.8305 25.6369 23.3609 25.523C23.8913 25.4092 24.3774 25.1446 24.761 24.761C25.1446 24.3774 25.4092 23.8913 25.523 23.3609C25.6369 22.8305 25.5952 22.2786 25.4028 21.7714C25.2105 21.2641 24.8756 20.8233 24.4387 20.5018C24.3038 20.4025 24.1609 20.316 24.012 20.2427L25.2902 18.9855C25.4219 18.8651 25.5276 18.7189 25.6006 18.5559C25.6758 18.3881 25.7147 18.2062 25.7147 18.0223C25.7147 17.8384 25.6758 17.6566 25.6006 17.4887C25.5277 17.3259 25.4221 17.1799 25.2906 17.0595L23.5915 15.3822C23.4603 15.2527 23.2748 15.1944 23.0932 15.2256C22.9116 15.2568 22.7563 15.3737 22.6758 15.5395C22.5936 15.7093 22.4852 15.8652 22.3548 16.0016C22.0363 16.2854 21.6217 16.4378 21.1948 16.4277C20.7621 16.4174 20.35 16.241 20.044 15.935C19.738 15.6289 19.5615 15.2168 19.5512 14.7842C19.5411 14.3572 19.6935 13.9426 19.9773 13.6241C20.1137 13.4937 20.2696 13.3854 20.4395 13.3031C20.604 13.2233 20.7205 13.0695 20.7526 12.8895C20.7848 12.7094 20.7289 12.5248 20.6021 12.393L18.9881 10.7134C18.8672 10.5804 18.72 10.4737 18.5559 10.4002C18.3881 10.325 18.2062 10.2861 18.0223 10.2861Z" fill="#FFFDFA"/>
</g>
<defs>
<clipPath id="clip0_468_1863">
<rect width="16" height="16" fill="white" transform="translate(10 10)"/>
</clipPath>
</defs>
</svg>
