<svg width="36" height="36" viewBox="0 0 36 36" fill="none" xmlns="http://www.w3.org/2000/svg">
<rect width="36" height="36" rx="18" fill="#5CC3E6"/>
<g clip-path="url(#clip0_468_5261)">
<path fill-rule="evenodd" clip-rule="evenodd" d="M17.2857 11.889C16.1556 11.256 14.0414 10.4816 11.7102 10.2051C10.77 10.0935 10 10.8683 10 11.815V20.9579C10 21.9047 10.7737 22.6591 11.7053 22.8283C13.8086 23.2102 15.5581 24.2188 16.6744 25.0161C16.8614 25.1497 17.0684 25.2509 17.2857 25.3197V11.889ZM18.7143 25.3199C18.9313 25.2512 19.138 25.1502 19.3248 25.0168C20.4411 24.2193 22.1909 23.2104 24.2947 22.8285C25.2263 22.6593 26 21.9048 26 20.958V11.8152C26 10.8684 25.2299 10.0937 24.2898 10.2052C21.9585 10.4818 19.8444 11.256 18.7143 11.889V25.3199Z" fill="#F5FCFF"/>
</g>
<defs>
<clipPath id="clip0_468_5261">
<rect width="16" height="16" fill="white" transform="translate(10 10)"/>
</clipPath>
</defs>
</svg>
