<svg width="24" height="24" viewBox="0 0 24 24" fill="none" xmlns="http://www.w3.org/2000/svg">
  <path
    d="M4.88814 8.03631C5.46159 4.55463 8.4714 2 12 2C15.5286 2 18.5384 4.55463 19.1119 8.03632L19.5294 10.5714L20 18H4L4.47059 10.5714L4.88814 8.03631Z"
    fill="#38342D" />
  <ellipse cx="12" cy="20" rx="12" ry="4" fill="#38342D" />
  <ellipse cx="12" cy="12" rx="3" ry="2" fill="#ED9141" />
  <path
    d="M10.25 7.25C10.25 7.66421 9.91421 8 9.5 8C9.08579 8 8.75 7.66421 8.75 7.25C8.75 6.83579 9.08579 6.5 9.5 6.5C9.91421 6.5 10.25 6.83579 10.25 7.25Z"
    fill="#FFFBF5" />
  <path
    d="M15.2504 7.25C15.2504 7.66421 14.9146 8 14.5002 8C14.0859 8 13.7504 7.66411 13.7504 7.25C13.7504 6.83588 14.0859 6.5 14.5002 6.5C14.9146 6.5 15.2504 6.83579 15.2504 7.25Z"
    fill="#FFFBF5" />
  <path d="M7.2 10.5L6 10" stroke="#EDDCBF" stroke-width="0.5" stroke-linecap="round" />
  <path d="M16.8 10.5L18 10" stroke="#EDDCBF" stroke-width="0.5" stroke-linecap="round" />
  <path d="M6 13L7.2 12.5" stroke="#EDDCBF" stroke-width="0.5" stroke-linecap="round" />
  <path d="M18 13L16.8 12.5" stroke="#EDDCBF" stroke-width="0.5" stroke-linecap="round" />
  <path d="M7.2 11.5H6" stroke="#EDDCBF" stroke-width="0.5" stroke-linecap="round" />
  <path d="M16.8 11.5H18" stroke="#EDDCBF" stroke-width="0.5" stroke-linecap="round" />
</svg>