<svg width="46" height="46" viewBox="0 0 46 46" fill="none" xmlns="http://www.w3.org/2000/svg">
<circle cx="23" cy="23" r="23" fill="#FAF6F3"/>
<path fill-rule="evenodd" clip-rule="evenodd" d="M27.2732 11.4556L26.3274 13.3471C25.3338 13.1132 24.231 13 23.001 13C21.771 13 20.6682 13.1132 19.6745 13.3471L18.7288 11.4556C18.2827 10.5635 17.3709 10 16.3736 10C14.6605 10 13.4035 11.6099 13.8189 13.2719L13.8648 13.4552C13.9547 13.8148 14.1155 14.1527 14.3379 14.4492L15.3253 15.7658C13.8351 17.305 12.7365 19.5213 11.8264 22.5C11.4008 23.8932 11.1089 25.1197 11.0255 26.188C9.12634 27.1095 8 28.257 8 29.501C8 32.5386 14.7157 35.001 23 35.001C31.2843 35.001 38 32.5386 38 29.501C38 28.2575 36.8745 27.1103 34.9767 26.1891C34.8934 25.1205 34.6014 23.8937 34.1756 22.5C33.2656 19.5213 32.167 17.305 30.6767 15.7657L31.664 14.4492C31.8864 14.1527 32.0473 13.8148 32.1372 13.4552L32.183 13.2719C32.5985 11.6099 31.3415 10 29.6284 10C28.631 10 27.7192 10.5635 27.2732 11.4556Z" fill="#DEDCD9"/>
</svg>
