<svg width="120" height="16" viewBox="0 0 120 16" fill="none" xmlns="http://www.w3.org/2000/svg">
  <path
    d="M116.753 8.10073V10.3193C116.753 10.9915 117.042 11.3277 117.62 11.3277H119.456C119.603 11.3277 119.731 11.3815 119.839 11.489C119.946 11.5966 120 11.7243 120 11.8722V14.5143C120 14.6622 119.946 14.7899 119.839 14.8975C119.731 15.005 119.603 15.0588 119.456 15.0588H117.177C113.815 15.0588 112.134 13.6134 112.134 10.7226V8.10073H110.541C110.393 8.10073 110.265 8.04695 110.158 7.93938C110.05 7.83182 109.997 7.70408 109.997 7.55618V5.1158C109.997 4.9679 110.05 4.84017 110.158 4.7326C110.265 4.62504 110.393 4.57126 110.541 4.57126H112.134V1.28381C112.134 1.1359 112.188 1.00817 112.296 0.900605C112.403 0.79304 112.531 0.739258 112.679 0.739258H116.208C116.356 0.739258 116.484 0.79304 116.592 0.900605C116.699 1.00817 116.753 1.1359 116.753 1.28381V4.57126H119.294C119.442 4.57126 119.57 4.62504 119.677 4.7326C119.785 4.84017 119.839 4.9679 119.839 5.1158V7.55618C119.839 7.70408 119.785 7.83182 119.677 7.93938C119.57 8.04695 119.442 8.10073 119.294 8.10073H116.753Z"
    fill="#C1BDB8" />
  <path
    d="M108.45 11.0045H102.44V11.1054C102.44 11.9256 102.702 12.3357 103.227 12.3357C103.375 12.3357 103.556 12.2281 103.771 12.013C103.987 11.7978 104.222 11.6903 104.477 11.6903H108.289C108.585 11.6903 108.733 11.8382 108.733 12.134C108.733 12.7928 108.235 13.4785 107.24 14.1912C106.259 14.9038 104.921 15.2601 103.227 15.2601C101.546 15.2601 100.168 14.8231 99.0923 13.9491C98.0301 13.0617 97.499 11.8449 97.499 10.2987V9.33057C97.499 7.865 98.0436 6.67506 99.1327 5.76076C100.222 4.83301 101.647 4.36914 103.408 4.36914C105.183 4.36914 106.555 4.8868 107.523 5.92211C108.504 6.95742 108.995 8.26837 108.995 9.85495V10.46C108.995 10.6079 108.941 10.7356 108.834 10.8432C108.726 10.9508 108.598 11.0045 108.45 11.0045ZM104.054 8.40282C104.054 7.59609 103.785 7.19272 103.247 7.19272C102.709 7.19272 102.44 7.59609 102.44 8.40282V8.4835H104.054V8.40282Z"
    fill="#C1BDB8" />
  <path
    d="M95.5498 11.0045H89.5397V11.1054C89.5397 11.9256 89.8018 12.3357 90.3262 12.3357C90.4741 12.3357 90.6556 12.2281 90.8708 12.013C91.0859 11.7978 91.3212 11.6903 91.5767 11.6903H95.3885C95.6843 11.6903 95.8322 11.8382 95.8322 12.134C95.8322 12.7928 95.3347 13.4785 94.3397 14.1912C93.3582 14.9038 92.0204 15.2601 90.3262 15.2601C88.6455 15.2601 87.2673 14.8231 86.1917 13.9491C85.1295 13.0617 84.5984 11.8449 84.5984 10.2987V9.33057C84.5984 7.865 85.1429 6.67506 86.232 5.76076C87.3211 4.83301 88.7464 4.36914 90.5077 4.36914C92.2826 4.36914 93.654 4.8868 94.6221 5.92211C95.6036 6.95742 96.0944 8.26837 96.0944 9.85495V10.46C96.0944 10.6079 96.0406 10.7356 95.933 10.8432C95.8255 10.9508 95.6977 11.0045 95.5498 11.0045ZM91.1531 8.40282C91.1531 7.59609 90.8842 7.19272 90.3464 7.19272C89.8086 7.19272 89.5397 7.59609 89.5397 8.40282V8.4835H91.1531V8.40282Z"
    fill="#C1BDB8" />
  <path
    d="M77.5343 7.97929C77.3192 7.97929 77.1309 8.05996 76.9696 8.22131C76.8217 8.38266 76.7477 8.62468 76.7477 8.94737V14.5139C76.7477 14.6618 76.694 14.7895 76.5864 14.8971C76.4788 15.0046 76.3511 15.0584 76.2032 15.0584H72.6536C72.5057 15.0584 72.3779 15.0046 72.2704 14.8971C72.1628 14.7895 72.109 14.6618 72.109 14.5139V9.08855C72.109 8.34904 71.8401 7.97929 71.3023 7.97929C71.0737 7.97929 70.8787 8.06668 70.7174 8.24148C70.5695 8.40282 70.4955 8.6314 70.4955 8.9272V14.5139C70.4955 14.6618 70.4418 14.7895 70.3342 14.8971C70.2266 15.0046 70.0989 15.0584 69.951 15.0584H66.3207C66.1728 15.0584 66.045 15.0046 65.9375 14.8971C65.8299 14.7895 65.7761 14.6618 65.7761 14.5139V5.11537C65.7761 4.96747 65.8299 4.83974 65.9375 4.73217C66.045 4.62461 66.1728 4.57082 66.3207 4.57082H69.6485C69.7964 4.57082 69.9241 4.62461 70.0317 4.73217C70.1392 4.83974 70.193 4.96747 70.193 5.11537V5.78093C70.4619 5.43134 70.8451 5.11537 71.3426 4.83301C71.8939 4.52377 72.5124 4.36914 73.1981 4.36914C74.6771 4.36914 75.6721 4.92041 76.183 6.02295C76.5057 5.55235 76.9494 5.16243 77.5141 4.85318C78.0789 4.53049 78.6637 4.36914 79.2688 4.36914C80.3579 4.36914 81.2453 4.75234 81.931 5.51874C82.6302 6.28514 82.9798 7.42802 82.9798 8.94737V14.5139C82.9798 14.6618 82.926 14.7895 82.8184 14.8971C82.7109 15.0046 82.5831 15.0584 82.4352 15.0584H78.8856C78.7377 15.0584 78.61 15.0046 78.5024 14.8971C78.3948 14.7895 78.341 14.6618 78.341 14.5139V9.08855C78.341 8.34904 78.0721 7.97929 77.5343 7.97929Z"
    fill="#C1BDB8" />
  <path
    d="M63.5245 11.0045H57.5143V11.1054C57.5143 11.9256 57.7765 12.3357 58.3008 12.3357C58.4487 12.3357 58.6302 12.2281 58.8454 12.013C59.0605 11.7978 59.2958 11.6903 59.5513 11.6903H63.3631C63.6589 11.6903 63.8068 11.8382 63.8068 12.134C63.8068 12.7928 63.3093 13.4785 62.3143 14.1912C61.3328 14.9038 59.995 15.2601 58.3008 15.2601C56.6201 15.2601 55.242 14.8231 54.1663 13.9491C53.1041 13.0617 52.573 11.8449 52.573 10.2987V9.33057C52.573 7.865 53.1175 6.67506 54.2066 5.76076C55.2957 4.83301 56.721 4.36914 58.4823 4.36914C60.2572 4.36914 61.6286 4.8868 62.5967 5.92211C63.5782 6.95742 64.069 8.26837 64.069 9.85495V10.46C64.069 10.6079 64.0152 10.7356 63.9077 10.8432C63.8001 10.9508 63.6724 11.0045 63.5245 11.0045ZM59.1277 8.40282C59.1277 7.59609 58.8588 7.19272 58.321 7.19272C57.7832 7.19272 57.5143 7.59609 57.5143 8.40282V8.4835H59.1277V8.40282Z"
    fill="#C1BDB8" />
  <path
    d="M43.8742 9.08898V14.5143C43.8742 14.6622 43.8204 14.7899 43.7129 14.8975C43.6053 15.005 43.4776 15.0588 43.3297 15.0588H39.3968C39.2489 15.0588 39.1212 15.005 39.0136 14.8975C38.9061 14.7899 38.8523 14.6622 38.8523 14.5143V1.28381C38.8523 1.1359 38.9061 1.00817 39.0136 0.900605C39.1212 0.79304 39.2489 0.739258 39.3968 0.739258H43.3297C43.4776 0.739258 43.6053 0.79304 43.7129 0.900605C43.8204 1.00817 43.8742 1.1359 43.8742 1.28381V5.62001C44.6406 4.78639 45.6222 4.36957 46.8188 4.36957C48.0155 4.36957 49.0037 4.75949 49.7836 5.53934C50.5634 6.31919 50.9533 7.45534 50.9533 8.9478V14.4941C50.9533 14.642 50.8996 14.7698 50.792 14.8773C50.6844 14.9849 50.5567 15.0387 50.4088 15.0387H46.4558C46.3079 15.0387 46.1802 14.9849 46.0726 14.8773C45.965 14.7698 45.9112 14.642 45.9112 14.4941V9.08898C45.9112 8.34947 45.5684 7.97972 44.8826 7.97972C44.2104 7.97972 43.8742 8.34947 43.8742 9.08898Z"
    fill="#C1BDB8" />
  <path
    d="M34.1885 8.10073V10.3193C34.1885 10.9915 34.4776 11.3277 35.0558 11.3277H36.8911C37.039 11.3277 37.1667 11.3815 37.2743 11.489C37.3819 11.5966 37.4357 11.7243 37.4357 11.8722V14.5143C37.4357 14.6622 37.3819 14.7899 37.2743 14.8975C37.1667 15.005 37.039 15.0588 36.8911 15.0588H34.6121C31.2507 15.0588 29.57 13.6134 29.57 10.7226V8.10073H27.9767C27.8288 8.10073 27.701 8.04695 27.5935 7.93938C27.4859 7.83182 27.4321 7.70408 27.4321 7.55618V5.1158C27.4321 4.9679 27.4859 4.84017 27.5935 4.7326C27.701 4.62504 27.8288 4.57126 27.9767 4.57126H29.57V1.28381C29.57 1.1359 29.6238 1.00817 29.7313 0.900605C29.8389 0.79304 29.9666 0.739258 30.1145 0.739258H33.644C33.7919 0.739258 33.9196 0.79304 34.0272 0.900605C34.1348 1.00817 34.1885 1.1359 34.1885 1.28381V4.57126H36.7298C36.8777 4.57126 37.0054 4.62504 37.113 4.7326C37.2205 4.84017 37.2743 4.9679 37.2743 5.1158V7.55618C37.2743 7.70408 37.2205 7.83182 37.113 7.93938C37.0054 8.04695 36.8777 8.10073 36.7298 8.10073H34.1885Z"
    fill="#C1BDB8" />
  <path
    d="M14.718 10.5003V9.12889C14.718 7.59609 15.2626 6.4196 16.3517 5.59941C17.4408 4.77923 18.8458 4.36914 20.5669 4.36914C22.2879 4.36914 23.693 4.77923 24.7821 5.59941C25.8712 6.4196 26.4157 7.59609 26.4157 9.12889V10.5003C26.4157 12.0466 25.8913 13.2298 24.8426 14.05C23.7938 14.8567 22.3686 15.2601 20.5669 15.2601C18.7651 15.2601 17.3399 14.8567 16.2912 14.05C15.2424 13.2298 14.718 12.0466 14.718 10.5003ZM21.4744 10.6617V8.96754C21.4744 8.45661 21.4072 8.1003 21.2728 7.89861C21.1383 7.69693 20.903 7.59609 20.5669 7.59609C20.2307 7.59609 19.9954 7.69693 19.861 7.89861C19.7265 8.1003 19.6593 8.45661 19.6593 8.96754V10.6617C19.6593 11.1995 19.7265 11.5625 19.861 11.7508C19.9954 11.939 20.2307 12.0331 20.5669 12.0331C20.903 12.0331 21.1383 11.9323 21.2728 11.7306C21.4072 11.5289 21.4744 11.1726 21.4744 10.6617Z"
    fill="#C1BDB8" />
  <path
    d="M0.544547 0.94043H6.35305C8.31611 0.94043 9.92958 1.43119 11.1935 2.41272C12.4708 3.38081 13.1095 4.73881 13.1095 6.48674V9.49184C13.1095 11.3204 12.491 12.7053 11.254 13.6465C10.017 14.5877 8.39006 15.0583 6.37322 15.0583H0.544547C0.396645 15.0583 0.268912 15.0045 0.161347 14.897C0.0537823 14.7894 0 14.6617 0 14.5138V1.48498C0 1.33708 0.0537823 1.20934 0.161347 1.10178C0.268912 0.994212 0.396645 0.94043 0.544547 0.94043ZM5.0421 4.87327V11.1255H6.35305C6.8102 11.1255 7.17323 10.991 7.44214 10.7221C7.7245 10.4398 7.86568 10.0297 7.86568 9.49184V6.48674C7.86568 5.4111 7.36147 4.87327 6.35305 4.87327H5.0421Z"
    fill="#C1BDB8" />
</svg>