<svg xmlns="http://www.w3.org/2000/svg" width="24" height="24" fill="none"><circle cx="12" cy="12" r="12" fill="#FAF6F3"/><g clip-path="url(#a)"><path fill="#DEDCD9" fill-rule="evenodd" d="M12 12.952a3.81 3.81 0 0 0 3.81-3.81v-.04a4.391 4.391 0 0 1-2.823-1.125 4.392 4.392 0 0 1-2.944 1.127c-.651 0-1.27-.141-1.828-.396A3.81 3.81 0 0 0 12 12.952Zm1.343-5.965a3.445 3.445 0 0 0 2.334 1.156 3.811 3.811 0 0 0-7.229-.38c.477.248 1.019.39 1.595.39 1.03 0 1.954-.45 2.587-1.166a.476.476 0 0 1 .713 0ZM5.821 18.064a6.669 6.669 0 0 1 12.358 0c.12.295-.108.602-.427.602H6.248c-.318 0-.547-.307-.427-.602Z" clip-rule="evenodd"/></g><defs><clipPath id="a"><path fill="#fff" d="M5.333 5.333h13.333v13.333H5.333z"/></clipPath></defs></svg>